<svg width="136.157" height="136.157" viewBox="0 0 36.025 36.025" xmlns="http://www.w3.org/2000/svg"><path d="M27.105 23.29c-4.103-2.297-8.296-3.089-12.734-.57.394-1.673 1.31-2.859 2.545-3.822 1.845-1.44 3.978-1.735 6.226-1.487 3.164.347 5.812 1.84 8.007 4.026 1.646 1.64 3.028 3.546 4.518 5.34.144.174.221.404.359.661-3.16-.61-6.054.24-8.933 1.178-1.908.622-3.844 1.036-5.864 1.07-3.262.054-5.881-1.686-6.672-4.504-.271-.963-.211-1.07.74-1.565 2.036-1.06 4.209-1.484 6.49-1.433 1.843.04 3.603.476 5.318 1.106M13.805 20.496c.73-3.646-.735-6.382-3.14-8.77l-.172.094c.2.266.408.527.6.799 1.575 2.232 2.153 4.688 1.72 7.397-.113.705-.44.897-1.103.888-1.997-.027-3.516-1.144-4.32-3.228-.662-1.716-.741-3.507-.747-5.315-.007-2.078-.156-4.136-1.278-6.26 1.33.468 2.501.82 3.624 1.287 1.855.774 3.59 1.788 4.926 3.313 1.811 2.068 2.907 4.392 1.967 7.224-.354 1.066-1.008 1.924-2.077 2.571M-.002 29.916c1.256-3.42 2.784-6.478 6.211-8.05 2.26-1.035 4.684-.576 6.016 1.07.15.184.27.391.481.703-3.104-.785-5.542.258-7.685 2.25 1.343-.783 2.727-1.519 4.313-1.567 1.031-.032 2.074.123 3.1.27.186.028.45.419.458.648.055 1.71-1.03 3.07-2.87 3.678-1.417.468-2.871.487-4.337.372-2.455-.194-3.696-.067-5.687.626" fill="#27963c"/></svg>