<svg viewBox="0 0 711.92 90.006" xmlns="http://www.w3.org/2000/svg"><clipPath id="a"><path d="M0 612h792V0H0z"/></clipPath><g transform="matrix(1.3333 0 0 -1.3333 -171.07 452.77)" clip-path="url(#a)"><path d="M636.97 290.86c-11.632 6.513-23.518 8.756-36.097 1.616 1.116 4.743 3.715 8.105 7.214 10.836 5.229 4.08 11.277 4.917 17.648 4.215 8.968-.986 16.475-5.217 22.698-11.414 4.666-4.648 8.582-10.05 12.806-15.138.409-.492.628-1.142 1.017-1.872-8.957 1.731-17.16-.681-25.321-3.339-5.408-1.762-10.896-2.936-16.623-3.032-9.245-.155-16.67 4.778-18.913 12.766-.767 2.73-.597 3.034 2.097 4.436 5.772 3.004 11.932 4.206 18.396 4.063 5.228-.116 10.216-1.349 15.078-3.137m-37.7 7.92c2.07 10.337-2.085 18.093-8.9 24.861l-.49-.268c.568-.754 1.156-1.493 1.699-2.263 4.466-6.328 6.104-13.288 4.878-20.968-.32-1.999-1.246-2.543-3.127-2.517-5.662.077-9.967 3.242-12.247 9.151-1.876 4.862-2.099 9.939-2.116 15.065-.019 5.89-.441 11.723-3.623 17.745 3.771-1.326 7.09-2.324 10.273-3.65 5.259-2.193 10.176-5.067 13.963-9.389 5.135-5.864 8.24-12.449 5.576-20.478-1.002-3.021-2.857-5.453-5.886-7.289m-39.14-26.7c3.562 9.695 7.893 18.361 17.608 22.816 6.403 2.936 13.277 1.634 17.052-3.03.423-.522.765-1.11 1.364-1.993-8.8 2.223-15.711-.733-21.784-6.379 3.806 2.22 7.728 4.305 12.225 4.442 2.923.09 5.878-.35 8.787-.768.529-.076 1.277-1.184 1.299-1.835.155-4.849-2.92-8.699-8.137-10.424-4.014-1.327-8.137-1.383-12.293-1.055-6.958.55-10.475.188-16.121-1.774m-412.15 2.8c-4.744 0-8.697.951-11.859 2.855-3.162 1.903-5.769 4.261-7.819 7.072l7.115 7.291c1.816-2.283 3.675-4.056 5.58-5.315 1.902-1.259 4.172-1.888 6.807-1.888 2.928 0 5.285.98 7.072 2.943 1.786 1.961 2.679 4.992 2.679 9.092v40.322h11.07v-40.586c0-3.689-.499-6.882-1.495-9.575-.996-2.694-2.401-4.949-4.215-6.765-1.817-1.815-3.984-3.176-6.501-4.084-2.519-.908-5.33-1.362-8.434-1.362m52.7-.09c-3.983 0-7.585.571-10.805 1.713-3.221 1.142-5.973 2.855-8.257 5.14-2.285 2.284-4.042 5.108-5.271 8.476-1.23 3.367-1.846 7.276-1.846 11.729v35.401h10.718v-34.963c0-5.74 1.384-10.102 4.152-13.089 2.767-2.987 6.596-4.48 11.485-4.48 4.829 0 8.628 1.434 11.396 4.304s4.153 7.145 4.153 12.827v35.401h10.717v-34.875c0-4.567-.63-8.58-1.888-12.035-1.261-3.456-3.032-6.34-5.316-8.653-2.283-2.314-5.05-4.041-8.3-5.183-3.251-1.142-6.897-1.713-10.938-1.713m32.29 62.46h11.508l18.712-29.078 18.711 29.078h11.507v-61.493h-10.716v44.099l-19.414-28.989h-.352l-19.238 28.813v-43.923H232.97zm89.57-31.97c4.112 0 7.359 1.028 9.74 3.087 2.38 2.058 3.57 4.704 3.57 7.938v.176c0 3.645-1.206 6.393-3.614 8.246-2.411 1.852-5.641 2.779-9.696 2.779h-12.604V305.28zm-23.322 31.977h24.246c3.571 0 6.807-.484 9.707-1.45 2.898-.966 5.358-2.358 7.379-4.173a18.458 18.458 0 004.656-6.5c1.083-2.519 1.625-5.331 1.625-8.434v-.175c0-3.457-.646-6.488-1.938-9.093-1.291-2.606-3.053-4.787-5.284-6.544-2.23-1.757-4.842-3.09-7.836-3.997-2.995-.908-6.194-1.361-9.598-1.361h-12.239v-19.766h-10.718z" fill="#27963c"/><path d="M353.9 337.25h10.718v-30.922l29.253 30.922h13.264l-25.563-26.442 26.705-35.051h-13.089l-20.995 27.672-9.575-9.839v-17.833H353.9zm60.31 0h10.717v-61.493H414.21zm48.86-62.54c-4.51 0-8.668.821-12.474 2.46-3.807 1.639-7.11 3.879-9.909 6.721-2.799 2.84-4.995 6.192-6.589 10.058-1.592 3.865-2.389 7.993-2.389 12.386v.176c0 4.392.781 8.506 2.345 12.342s3.76 7.204 6.589 10.103c2.828 2.899 6.176 5.183 10.041 6.852s8.14 2.504 12.825 2.504c2.812 0 5.373-.235 7.687-.704 2.313-.469 4.437-1.127 6.369-1.976a29.9 29.9 0 005.359-3.031 41.971 41.971 0 004.656-3.865l-6.94-7.994c-2.46 2.284-5.066 4.129-7.818 5.534-2.754 1.406-5.886 2.109-9.4 2.109-2.929 0-5.637-.571-8.126-1.714a20.11 20.11 0 01-6.456-4.655c-1.817-1.963-3.222-4.261-4.217-6.896-.997-2.636-1.493-5.447-1.493-8.433v-.176c0-2.987.496-5.813 1.493-8.478.995-2.665 2.4-4.993 4.217-6.983a19.808 19.808 0 016.456-4.7c2.489-1.142 5.197-1.713 8.126-1.713 3.747 0 6.968.717 9.663 2.152 2.693 1.435 5.359 3.382 7.994 5.842l6.94-7.027a39.498 39.498 0 00-4.964-4.525 32.787 32.787 0 00-5.578-3.426c-1.991-.966-4.173-1.699-6.545-2.196-2.371-.497-4.993-.747-7.862-.747m33.2 62.54h10.718v-30.922l29.253 30.922h13.264l-25.563-26.442 26.705-35.051h-13.089l-20.995 27.672-9.575-9.839v-17.833H496.27z" fill="#231f20"/></g></svg>